<svg width="483.33868" height="486.7467" xmlns="http://www.w3.org/2000/svg" version="1.1" xml:space="preserve">
 <metadata id="metadata8">image/svg+xml</metadata>
 <defs id="defs6">
  <clipPath clipPathUnits="userSpaceOnUse" id="clipPath18">
   <path d="m-171.00043,1153.3123l728.504,0l0,-1031.812l-728.504,0l0,1031.812z" id="path16"/>
  </clipPath>
 </defs>
 <g>
  <title>Layer 1</title>
  <g id="g10" transform="matrix(1.33333 0 0 -1.33333 0 1375.75)">
   <g id="g12">
    <g id="g14" clip-path="url(#clipPath18)">
     <g id="g20">
      <path stroke-miterlimit="4" stroke-width="6" stroke="#231f20" fill="none" d="m357.12067,849.37823c0,-96.813 -78.481,-175.294 -175.293,-175.294c-96.812,0 -175.294,78.481 -175.294,175.294c0,96.813 78.482,175.294 175.294,175.294c96.812,0 175.293,-78.481 175.293,-175.294z" id="path22"/>
     </g>
     <g id="g24">
      <path fill-rule="nonzero" fill="#231f20" d="m109.80917,984.20727l-6.402,6.156l1.902,-8.673l4.5,2.517zm3.852,-3.719l-7.206,-4.028l0.882,-4.019l-6.515,-3.643l-3.821,25.004l7,3.914l19.296,-16.35l-6.683,-3.737l-2.953,2.859z" id="path26"/>
     </g>
     <g id="g28">
      <path fill-rule="nonzero" fill="#231f20" d="m122.64508,1006.32159l6.961,2.24l5.477,-17.016l10.887,3.505l1.781,-5.534l-17.849,-5.745l-7.257,22.55z" id="path30"/>
     </g>
     <g id="g32">
      <path fill-rule="nonzero" fill="#231f20" d="m152.73538,1014.62139l7.257,0.9l2.201,-17.739l11.351,1.409l0.716,-5.768l-18.608,-2.31l-2.917,23.508z" id="path34"/>
     </g>
     <g id="g36">
      <path fill-rule="nonzero" fill="#231f20" d="m212.50888,1014.07348l7.197,-1.292l-2.27,-12.651c-0.478,-2.658 -1.076,-4.637 -1.797,-5.938c-0.723,-1.302 -1.883,-2.306 -3.483,-3.013c-1.598,-0.707 -3.512,-0.86 -5.741,-0.46c-2.355,0.422 -4.124,1.069 -5.303,1.936c-1.18,0.869 -2.013,1.979 -2.499,3.33c-0.485,1.352 -0.63,2.94 -0.434,4.766l7.059,-0.295c-0.174,-1.035 -0.221,-1.818 -0.14,-2.348c0.081,-0.53 0.297,-0.987 0.647,-1.368c0.241,-0.252 0.618,-0.424 1.13,-0.516c0.812,-0.145 1.46,0.047 1.946,0.577c0.486,0.53 0.857,1.503 1.112,2.921l2.576,14.351z" id="path38"/>
     </g>
     <g id="g40">
      <path fill-rule="nonzero" fill="#231f20" d="m239.42676,991.02178l0.663,8.857l-5.47,-6.994l4.807,-1.863zm-0.41,-5.338l-7.697,2.984l-2.534,-3.241l-6.961,2.699l16.831,18.881l7.479,-2.899l-0.3,-25.29l-7.139,2.767l0.321,4.099z" id="path42"/>
     </g>
     <g id="g44">
      <path fill-rule="nonzero" fill="#231f20" d="m265.42197,982.70238l1.504,-0.978c1.184,-0.769 2.149,-1.103 2.896,-1.001c0.747,0.102 1.331,0.475 1.75,1.121c0.408,0.626 0.545,1.293 0.413,1.999c-0.133,0.706 -0.773,1.431 -1.919,2.177l-1.748,1.137l-2.896,-4.455zm-0.666,12.51l10.214,-6.64c2.224,-1.445 3.546,-3.058 3.965,-4.838c0.42,-1.78 -0.007,-3.648 -1.279,-5.604c-1.306,-2.011 -2.931,-3.19 -4.872,-3.537c-1.942,-0.349 -4.15,0.282 -6.625,1.89l-3.36,2.184l-4.77,-7.336l-6.183,4.019l12.91,19.862z" id="path46"/>
     </g>
     <g id="g48">
      <path fill-rule="nonzero" fill="#231f20" d="m288.92776,958.30602l4.014,7.924l-7.737,-4.358l3.723,-3.566zm-2.429,-4.771l-5.961,5.71l-3.584,-2.018l-5.39,5.164l22.791,10.971l5.792,-5.549l-9.989,-23.236l-5.529,5.297l1.87,3.661z" id="path50"/>
     </g>
     <g id="g52">
      <path fill-rule="nonzero" fill="#231f20" d="m314.19489,952.28637l3.799,-5.671l-5.93,-14.716l10.899,7.302l3.826,-5.712l-19.68,-13.184l-3.826,5.711l5.898,14.635l-10.839,-7.261l-3.826,5.711l19.679,13.185z" id="path54"/>
     </g>
     <g id="g56">
      <path fill-rule="nonzero" fill="#231f20" d="m333.15778,893.24438l0.787,-2.96c0.086,-0.321 0.354,-0.913 0.807,-1.778c0.217,-0.44 0.556,-0.756 1.021,-0.949c0.463,-0.192 0.944,-0.221 1.444,-0.088c0.738,0.196 1.244,0.58 1.515,1.149c0.272,0.571 0.239,1.496 -0.103,2.778l-0.821,3.085l-4.65,-1.237zm-15.547,3.497l22.893,6.089l3.134,-11.789c0.583,-2.186 0.838,-3.906 0.772,-5.161c-0.066,-1.254 -0.514,-2.371 -1.34,-3.349c-0.824,-0.977 -1.965,-1.66 -3.42,-2.047c-1.269,-0.338 -2.435,-0.357 -3.5,-0.062c-1.064,0.295 -2.008,0.839 -2.83,1.633c-0.523,0.504 -1.047,1.251 -1.564,2.236c-0.059,-0.915 -0.18,-1.602 -0.36,-2.06c-0.121,-0.309 -0.424,-0.792 -0.912,-1.449c-0.486,-0.657 -0.875,-1.113 -1.166,-1.368l-5.715,-5.203l-2.123,7.98l6,5.642c0.778,0.72 1.254,1.305 1.426,1.752c0.217,0.606 0.24,1.231 0.068,1.877l-0.166,0.626l-9.302,-2.474l-1.895,7.127z" id="path58"/>
     </g>
     <g id="g60">
      <path fill-rule="nonzero" fill="#231f20" d="m336.47028,862.0501c-2.371,-0.106 -4.055,-0.628 -5.051,-1.565c-0.996,-0.938 -1.459,-2.173 -1.39,-3.706c0.07,-1.578 0.632,-2.774 1.687,-3.592c1.053,-0.819 2.893,-1.168 5.522,-1.05c2.211,0.099 3.804,0.622 4.785,1.57c0.978,0.947 1.435,2.194 1.365,3.737c-0.066,1.479 -0.639,2.644 -1.715,3.493c-1.076,0.85 -2.81,1.22 -5.203,1.113m-0.297,7.307c3.854,0.173 6.902,-0.768 9.147,-2.826c2.244,-2.057 3.453,-5.007 3.627,-8.854c0.175,-3.941 -0.743,-7.024 -2.756,-9.252c-2.014,-2.228 -4.92,-3.427 -8.721,-3.598c-2.76,-0.125 -5.043,0.241 -6.852,1.092c-1.806,0.853 -3.242,2.137 -4.304,3.853c-1.061,1.716 -1.651,3.889 -1.768,6.516c-0.121,2.671 0.203,4.902 0.973,6.69c0.769,1.788 2.047,3.267 3.834,4.437c1.787,1.171 4.06,1.818 6.82,1.942" id="path62"/>
     </g>
     <g id="g64">
      <path fill-rule="nonzero" fill="#231f20" d="m337.61288,826.14971l-0.541,-3.111c-0.193,-1.117 -0.135,-1.927 0.178,-2.431c0.312,-0.505 0.836,-0.82 1.57,-0.948c0.68,-0.118 1.248,0.009 1.707,0.379c0.459,0.37 0.783,1.097 0.971,2.182l0.549,3.158l-4.434,0.771zm-9.176,1.594l-0.638,-3.685c-0.217,-1.244 -0.149,-2.159 0.203,-2.746c0.353,-0.587 0.902,-0.946 1.648,-1.075c0.692,-0.12 1.291,0.036 1.799,0.469c0.51,0.431 0.873,1.28 1.094,2.545l0.636,3.669l-4.742,0.823zm19.614,4.079l-2.34,-13.471c-0.391,-2.245 -1.248,-3.871 -2.573,-4.88c-1.324,-1.008 -2.812,-1.369 -4.459,-1.083c-1.382,0.24 -2.494,0.877 -3.332,1.91c-0.558,0.689 -0.933,1.62 -1.125,2.791c-0.695,-1.617 -1.603,-2.739 -2.72,-3.366c-1.119,-0.625 -2.42,-0.809 -3.905,-0.552c-1.209,0.21 -2.246,0.68 -3.113,1.41c-0.867,0.728 -1.496,1.63 -1.889,2.703c-0.244,0.665 -0.339,1.622 -0.287,2.869c0.071,1.659 0.151,2.754 0.242,3.283l2.163,12.44l23.338,-4.054z" id="path66"/>
     </g>
     <g id="g68">
      <path fill-rule="nonzero" fill="#231f20" d="m327.14218,795.83141c-2.197,0.897 -3.943,1.131 -5.242,0.697c-1.297,-0.432 -2.235,-1.359 -2.817,-2.781c-0.595,-1.461 -0.587,-2.782 0.026,-3.968c0.613,-1.184 2.137,-2.274 4.572,-3.269c2.047,-0.837 3.715,-1.031 5.002,-0.581c1.287,0.448 2.223,1.388 2.807,2.819c0.56,1.37 0.529,2.668 -0.092,3.89c-0.619,1.223 -2.039,2.287 -4.256,3.193m2.795,6.758c3.57,-1.459 5.943,-3.593 7.119,-6.402c1.174,-2.809 1.033,-5.995 -0.424,-9.558c-1.492,-3.652 -3.619,-6.067 -6.381,-7.244c-2.761,-1.178 -5.904,-1.047 -9.425,0.392c-2.557,1.045 -4.477,2.333 -5.762,3.866c-1.283,1.532 -2.047,3.299 -2.291,5.302c-0.244,2.004 0.133,4.223 1.127,6.657c1.012,2.476 2.242,4.365 3.691,5.665c1.447,1.3 3.227,2.107 5.34,2.419c2.113,0.314 4.449,-0.052 7.006,-1.097" id="path70"/>
     </g>
     <g id="g72">
      <path fill-rule="nonzero" fill="#231f20" d="m326.37256,765.79131l-12.436,-18.377l-4.865,3.293l4.168,6.16l-14.753,9.983l4.098,6.056l14.753,-9.982l4.168,6.159l4.867,-3.292z" id="path74"/>
     </g>
     <g id="g76">
      <path fill-rule="nonzero" fill="#231f20" d="m299.42288,749.94268l-6.425,-7.083l-3.75,3.402l6.426,7.082l3.749,-3.401z" id="path78"/>
     </g>
     <g id="g80">
      <path fill-rule="nonzero" fill="#231f20" d="m284.97668,739.12041l-5.129,-4.692c-0.833,0.796 -1.617,1.282 -2.35,1.459c-1.192,0.284 -2.329,-0.01 -3.414,-0.883c-0.809,-0.652 -1.281,-1.344 -1.413,-2.077c-0.132,-0.733 0.003,-1.35 0.408,-1.852c0.383,-0.476 0.933,-0.737 1.647,-0.783c0.714,-0.045 1.968,0.379 3.762,1.27c2.946,1.45 5.327,2.135 7.139,2.06c1.823,-0.067 3.313,-0.823 4.475,-2.267c0.763,-0.948 1.208,-2.064 1.337,-3.349c0.13,-1.285 -0.163,-2.613 -0.878,-3.983c-0.715,-1.37 -2.032,-2.828 -3.953,-4.373c-2.357,-1.896 -4.506,-2.904 -6.446,-3.026c-1.942,-0.12 -3.796,0.679 -5.567,2.397l5.108,4.62c0.8,-0.701 1.579,-1.051 2.337,-1.053c0.758,-0.001 1.543,0.324 2.353,0.975c0.666,0.537 1.055,1.082 1.167,1.633c0.112,0.552 0.006,1.028 -0.316,1.429c-0.236,0.293 -0.587,0.444 -1.054,0.455c-0.465,0.025 -1.284,-0.262 -2.458,-0.862c-2.919,-1.467 -5.136,-2.36 -6.652,-2.679c-1.518,-0.318 -2.847,-0.27 -3.99,0.146c-1.142,0.416 -2.116,1.125 -2.924,2.128c-0.947,1.178 -1.494,2.528 -1.641,4.048c-0.148,1.52 0.158,3.008 0.917,4.465c0.759,1.456 2.029,2.902 3.812,4.338c3.132,2.519 5.786,3.66 7.965,3.42c2.179,-0.239 4.098,-1.228 5.758,-2.964" id="path82"/>
     </g>
     <g id="g84">
      <path fill-rule="nonzero" fill="#231f20" d="m253.32626,699.17217l-6.529,-3.294l-6.351,12.584c-0.63,1.249 -1.029,2.525 -1.2,3.83c-0.171,1.306 -0.05,2.583 0.363,3.833c0.413,1.249 0.99,2.273 1.735,3.069c1.031,1.111 2.435,2.115 4.212,3.011c1.03,0.52 2.189,1.014 3.476,1.485c1.288,0.469 2.449,0.696 3.481,0.681c1.034,-0.014 2.086,-0.245 3.162,-0.69c1.075,-0.445 1.948,-1.022 2.619,-1.732c1.082,-1.14 1.885,-2.228 2.407,-3.265l6.352,-12.584l-6.53,-3.295l-6.509,12.897c-0.582,1.154 -1.354,1.894 -2.319,2.221c-0.964,0.327 -2.011,0.205 -3.14,-0.365c-1.121,-0.566 -1.838,-1.328 -2.154,-2.289c-0.314,-0.959 -0.176,-2.027 0.416,-3.2l6.509,-12.897z" id="path86"/>
     </g>
     <g id="g88">
      <path fill-rule="nonzero" fill="#231f20" d="m233.02737,690.60967l-9.401,-2.22l-6.885,13.193l-0.265,-14.881l-9.363,-2.21l-5.443,23.054l5.839,1.378l4.148,-17.566l0.33,18.624l5.287,1.248l8.617,-16.511l-4.148,17.567l5.84,1.379l5.444,-23.055z" id="path90"/>
     </g>
     <g id="g92">
      <path fill-rule="nonzero" fill="#231f20" d="m186.19739,694.98571c0.011,2.374 -0.427,4.081 -1.313,5.122c-0.886,1.042 -2.097,1.566 -3.632,1.573c-1.578,0.008 -2.802,-0.494 -3.672,-1.506c-0.869,-1.011 -1.31,-2.832 -1.322,-5.462c-0.011,-2.213 0.433,-3.831 1.33,-4.858c0.898,-1.025 2.12,-1.542 3.665,-1.55c1.48,-0.007 2.673,0.506 3.574,1.539c0.902,1.034 1.358,2.747 1.37,5.142m7.313,-0.065c-0.019,-3.858 -1.111,-6.857 -3.277,-8.996c-2.167,-2.139 -5.174,-3.2 -9.023,-3.182c-3.946,0.019 -6.98,1.09 -9.105,3.212c-2.124,2.121 -3.178,5.084 -3.16,8.888c0.013,2.763 0.491,5.025 1.432,6.789c0.941,1.762 2.295,3.132 4.062,4.107c1.767,0.976 3.966,1.456 6.596,1.443c2.674,-0.012 4.885,-0.446 6.633,-1.304c1.748,-0.858 3.161,-2.206 4.241,-4.05c1.08,-1.843 1.613,-4.146 1.601,-6.907" id="path94"/>
     </g>
     <g id="g96">
      <path fill-rule="nonzero" fill="#231f20" d="m138.55176,688.46319l-21.009,7.139l1.89,5.562l7.043,-2.392l5.731,16.865l6.924,-2.353l-5.731,-16.866l7.042,-2.392l-1.89,-5.563z" id="path98"/>
     </g>
     <g id="g100">
      <path fill-rule="nonzero" fill="#231f20" d="m107.34338,713.97198c1.206,2.045 1.688,3.739 1.447,5.086c-0.241,1.347 -1.023,2.409 -2.345,3.188c-1.36,0.802 -2.669,0.985 -3.931,0.549c-1.26,-0.435 -2.558,-1.786 -3.895,-4.052c-1.123,-1.907 -1.556,-3.528 -1.297,-4.866c0.258,-1.339 1.054,-2.4 2.385,-3.185c1.275,-0.752 2.563,-0.909 3.862,-0.471c1.3,0.438 2.558,1.688 3.774,3.751m6.284,-3.74c-1.959,-3.323 -4.413,-5.364 -7.362,-6.12c-2.949,-0.757 -6.082,-0.159 -9.398,1.797c-3.399,2.003 -5.48,4.458 -6.246,7.361c-0.767,2.902 -0.184,5.993 1.748,9.269c1.403,2.38 2.955,4.094 4.657,5.143c1.701,1.049 3.561,1.55 5.578,1.503c2.017,-0.049 4.159,-0.741 6.425,-2.077c2.303,-1.358 3.994,-2.847 5.072,-4.469c1.078,-1.62 1.619,-3.498 1.623,-5.635c0.005,-2.136 -0.694,-4.393 -2.097,-6.772" id="path102"/>
     </g>
     <g id="g104">
      <path fill-rule="nonzero" fill="#231f20" d="m64.35457,731.40069l-5.315,5.022l9.681,10.247c0.961,1.016 2.026,1.825 3.196,2.428c1.169,0.604 2.412,0.924 3.728,0.959c1.315,0.036 2.474,-0.159 3.476,-0.589c1.394,-0.592 2.815,-1.573 4.262,-2.94c0.838,-0.792 1.697,-1.715 2.576,-2.766c0.879,-1.052 1.486,-2.067 1.823,-3.044c0.336,-0.976 0.478,-2.045 0.424,-3.207c-0.054,-1.163 -0.3,-2.179 -0.74,-3.051c-0.705,-1.406 -1.457,-2.53 -2.254,-3.373l-9.682,-10.246l-5.315,5.023l9.923,10.5c0.887,0.939 1.321,1.917 1.301,2.935c-0.02,1.018 -0.49,1.961 -1.41,2.831c-0.912,0.862 -1.873,1.278 -2.884,1.249c-1.009,-0.031 -1.966,-0.523 -2.868,-1.477l-9.922,-10.501z" id="path106"/>
     </g>
     <g id="g108">
      <path fill-rule="nonzero" fill="#231f20" d="m53.42677,759.07549l-1.723,2.533c-0.187,0.275 -0.636,0.744 -1.35,1.41c-0.35,0.343 -0.776,0.53 -1.277,0.558c-0.501,0.027 -0.964,-0.104 -1.392,-0.395c-0.632,-0.429 -0.981,-0.959 -1.05,-1.585c-0.067,-0.629 0.271,-1.492 1.017,-2.588l1.796,-2.64l3.979,2.707zm15.828,1.845l-19.587,-13.322l-6.861,10.087c-1.272,1.87 -2.083,3.409 -2.436,4.615c-0.351,1.207 -0.299,2.408 0.156,3.604c0.455,1.195 1.305,2.217 2.551,3.064c1.085,0.738 2.18,1.143 3.281,1.216c1.102,0.075 2.172,-0.127 3.211,-0.604c0.662,-0.303 1.401,-0.834 2.216,-1.593c-0.246,0.884 -0.36,1.571 -0.341,2.064c0.011,0.331 0.138,0.887 0.38,1.669c0.242,0.781 0.458,1.34 0.648,1.677l3.671,6.8l4.643,-6.827l-3.793,-7.31c-0.496,-0.937 -0.751,-1.645 -0.765,-2.125c-0.006,-0.643 0.179,-1.242 0.555,-1.795l0.364,-0.535l7.959,5.413l4.148,-6.098z" id="path110"/>
     </g>
     <g id="g112">
      <path fill-rule="nonzero" fill="#231f20" d="m31.02837,777.64678l-2.538,6.337l8.861,13.162l-12.178,-4.877l-2.556,6.382l21.991,8.807l2.555,-6.383l-8.812,-13.09l12.112,4.85l2.556,-6.381l-21.991,-8.807z" id="path114"/>
     </g>
     <g id="g116">
      <path fill-rule="nonzero" fill="#231f20" d="m31.17537,827.5501l-7.958,-3.946l8.806,-1.14l-0.848,5.086zm4.801,2.368l1.358,-8.142l4.08,-0.528l1.228,-7.363l-24.825,4.852l-1.319,7.911l21.908,12.637l1.26,-7.553l-3.69,-1.814z" id="path118"/>
     </g>
     <g id="g120">
      <path fill-rule="nonzero" fill="#231f20" d="m14.40147,847.54333l0.634,9.639l14.631,2.715l-14.149,4.615l0.632,9.599l23.637,-1.554l-0.394,-5.988l-18.011,1.185l17.709,-5.775l-0.356,-5.421l-18.312,-3.398l18.01,-1.184l-0.394,-5.988l-23.637,1.555z" id="path122"/>
     </g>
     <g id="g124">
      <path fill-rule="nonzero" fill="#231f20" d="m19.08797,888.20641l5.55,18.824l4.856,-1.431l-3.482,-11.811l3.597,-1.061l3.235,10.972l4.616,-1.361l-3.235,-10.971l4.497,-1.326l3.588,12.17l5.155,-1.52l-5.655,-19.184l-22.722,6.699z" id="path126"/>
     </g>
     <g id="g128">
      <path fill-rule="nonzero" fill="#231f20" d="m29.88678,920.04717l3.266,5.994l15.789,1.56l-11.519,6.277l3.289,6.037l20.801,-11.334l-3.289,-6.037l-15.704,-1.551l11.457,-6.243l-3.289,-6.037l-20.801,11.334z" id="path130"/>
     </g>
     <g id="g132">
      <path fill-rule="nonzero" fill="#231f20" d="m47.99567,950.40948l14.483,16.81l4.452,-3.835l-4.856,-5.635l13.495,-11.628l-4.774,-5.54l-13.494,11.628l-4.855,-5.635l-4.451,3.835z" id="path134"/>
     </g>
     <g id="g136">
      <path fill-rule="nonzero" fill="#231f20" d="m138.49716,948.89477c2.262,-2.855 4.724,-5.626 7.495,-8.172c1.753,1.132 0.876,3.734 1.809,5.373c1.186,1.189 2.516,-0.112 3.844,-0.169c2.151,-3.083 5.12,-5.401 7.352,-8.541c1.076,-1.385 2.292,-3.11 3.734,-4.184c0.254,-0.368 0.396,-0.763 0.34,-1.3c-1.866,-0.143 -3.903,0.055 -5.6,0.733c-2.234,1.981 -3.675,4.44 -5.826,6.421c-2.176,-0.905 -0.591,-4.44 -2.77,-5.372c-1.895,0.142 -3.958,0.423 -4.92,2.261l-10.379,11.819c0.452,2.007 3.451,1.274 4.921,1.131" id="path138"/>
     </g>
     <g id="g140">
      <path fill-rule="nonzero" fill="#231f20" d="m229.80377,948.36071l-0.113,-1.076c-4.381,-4.638 -7.323,-8.229 -11.707,-12.868c-1.243,-0.79 -3.195,-0.989 -4.551,-0.395c-0.566,1.727 -0.229,3.847 -1.697,5.034c-3.704,-2.205 -5.118,-8.087 -10.265,-7.297c-0.537,0.143 -1.413,-0.253 -1.668,0.399c0.341,1.668 2.374,2.799 3.309,4.183c2.713,3.336 5.937,6.985 9.131,9.755c0.961,0.201 2.151,0.68 3.112,0.141c0.792,-1.779 0.848,-3.845 1.781,-5.514l0.622,0.144c2.433,2.996 5.006,5.37 7.862,8.114c1.555,0.17 2.856,-0.225 4.184,-0.62" id="path142"/>
     </g>
     <g id="g144">
      <path fill-rule="nonzero" fill="#231f20" d="m80.50107,771.56768c0.621,-1.723 1.697,-3.448 2.998,-4.918c-0.198,-0.791 -1.133,-1.33 -1.781,-1.642c-2.603,0.226 -3.395,3.055 -4.327,4.921c-0.338,1.245 -0.934,2.66 -0.453,3.904c0.708,0.592 1.441,1.326 2.461,1.326c1.243,-0.789 0.537,-2.459 1.102,-3.591" id="path146"/>
     </g>
     <g id="g148">
      <path fill-rule="nonzero" fill="#231f20" d="m285.53818,773.77673c1.076,-1.077 0,-2.349 0,-3.536c-0.849,-1.921 -1.78,-3.986 -3.59,-5.429c-0.99,-0.455 -1.724,0.311 -2.375,0.904c-0.82,1.075 0.848,1.811 1.244,2.659c1.131,1.781 1.924,3.676 1.924,5.995c0.848,0.705 2.203,0.112 2.797,-0.593" id="path150"/>
     </g>
     <g id="g152">
      <path fill-rule="nonzero" fill="#231f20" d="m73.06548,770.83331c0.48,-1.725 2.599,-3.109 3.731,-4.24c-0.056,-1.132 -1.384,-0.989 -2.206,-1.36c-1.357,-0.561 -2.431,0.934 -3.167,1.953c-1.273,1.867 -2.317,3.988 -2.206,6.334c0.877,0.593 1.81,1.245 2.942,0.849l0.906,-3.536z" id="path154"/>
     </g>
     <g id="g156">
      <path fill-rule="nonzero" fill="#231f20" d="m293.37216,773.34991c0.539,-3.194 -1.386,-6.021 -3.79,-8.228c-1.273,-0.114 -2.855,-0.31 -3.702,0.594c-0.342,1.386 1.383,1.215 1.781,2.064c1.357,1.781 2.797,3.535 2.854,5.853c0.651,0.849 2.206,0.396 2.857,-0.283" id="path158"/>
     </g>
     <g id="g160">
      <path fill-rule="nonzero" fill="#231f20" d="m189.96298,971.94372c1.072,-2.771 1.271,-6.506 -0.595,-8.965c-1.416,-1.894 -3.167,-2.826 -4.635,-3.731c0,-12.754 -0.484,-26.214 0,-38.967l0.704,-0.595c24.377,-1.612 46.574,-13.969 60.373,-35.121c6.504,-10.318 9.84,-22.027 11.507,-34.272l0.793,-0.735c7.096,0.34 14.139,0.257 21.178,0.905l2.067,1.076l14.42,12.951c2.431,1.327 3.365,-2.208 5.035,-3.252l-0.143,-0.934l-9.273,-8.653l0.451,-0.454c5.176,-0.141 10.433,0.793 15.412,0.143c0.254,-1.866 1.188,-4.781 -0.339,-5.966c-4.724,-0.284 -10.21,-0.396 -14.932,-0.877l-0.395,-0.339c3.309,-2.915 7.098,-5.147 10.406,-8.344l-0.255,-1.101c-1.61,-0.85 -2.007,-4.357 -4.383,-3.082c-5.627,4.014 -11.368,8.566 -17.221,12.414c-6.559,-0.425 -14.251,-0.622 -21.037,-1.216c-0.595,-0.114 -0.879,-0.594 -1.19,-1.075c0.793,-6.025 0.737,-12.386 1.358,-18.521c3.478,-1.981 7.863,-1.442 11.31,-3.363l1.246,-1.277l0.168,-17.474c-1.951,-2.318 -4.975,-2.318 -7.633,-3.251c-0.255,-0.34 -0.537,-0.82 -0.255,-1.188c4.382,-7.042 9.67,-14.083 15.183,-20.672c-0.392,-1.243 -1.977,-1.186 -2.996,-1.781c-4.1,-0.707 -7.746,-2.516 -11.791,-3.251c-0.934,-1.415 -0.678,-3.337 -1.217,-4.922c-2.513,-9.077 -11.225,-17.049 -20.726,-18.265c-10.492,-1.387 -20.643,3.394 -25.733,12.695c-0.622,0.453 -0.763,1.586 -1.753,1.529c-16.995,-1.64 -34.721,-2.404 -51.747,-1.188c-3.591,0.255 -6.758,0.395 -10.293,0.848c-2.036,-0.143 -4.438,0.791 -6.42,0.14c-3.843,-7.916 -12.045,-13.148 -20.612,-13.884c-10.153,-1.186 -19.823,4.384 -24.375,13.291c-1.585,2.912 -2.377,6.165 -2.827,9.559c-4.894,1.866 -9.983,3.11 -14.961,4.778c-1.187,1.528 1.528,2.288 1.925,3.591c4.948,5.515 8.906,11.877 13.148,17.9c0.424,1.017 -0.849,1.103 -1.329,1.413c-2.234,0.68 -4.836,1.017 -6.278,2.884l0,17.335c0.848,2.178 3.365,2.262 5.202,3.111c2.32,0.113 4.411,1.131 6.73,1.442l0.68,0.961c0,6.277 0.452,11.819 0.961,18.041c-0.056,0.51 -0.453,1.132 -0.961,1.188c-6.786,0.337 -14.054,0.82 -20.927,0.933c-2.94,-1.048 -4.919,-3.646 -7.662,-5.231c-3.167,-2.377 -6.305,-4.721 -9.559,-7.296c-2.318,0 -3.391,2.632 -4.325,4.299c0.734,1.469 2.687,1.782 3.591,3.11c2.263,1.016 3.535,3.591 5.91,4.327c0.142,0.394 0.594,0.678 0.48,1.214c-1.95,0.511 -3.731,0.369 -5.796,0.595l-9.02,0.592l-0.707,0.794c0.707,1.723 -0.82,4.976 1.783,5.314c4.777,-0.141 9.273,-0.818 13.854,-0.423c0.34,0.198 0.283,0.766 0.086,1.019l-8.427,7.973c-0.312,0.254 -0.143,0.652 -0.143,0.99c1.273,1.216 2.518,4.184 4.639,3.451c5.258,-5.119 10.179,-9.615 15.523,-14.169c7.127,-0.79 14.11,-0.706 21.265,-1.357c1.216,0.143 1.129,1.498 1.47,2.375c1.244,5.657 1.613,11.707 3.931,16.855c8.484,26.326 35.715,47.846 63.285,50.218c1.441,0.341 3.788,-0.337 4.835,1.076c0.087,13.008 0.481,26.666 0.142,39.166c-0.989,0.648 -2.262,1.525 -3.308,2.657c-2.405,2.4 -3.139,5.851 -1.925,9.105c1.049,3.449 4.584,5.908 8.09,6.192c3.788,0.087 7.237,-1.866 8.963,-5.258" id="path162"/>
     </g>
     <g id="g164">
      <path fill-rule="nonzero" fill="#ed1c24" d="m181.14267,971.6878c-1.218,-0.199 -2.548,-0.82 -3.142,-2.121c-0.366,-0.878 -0.594,-2.631 0.256,-3.535c0.736,-1.046 1.865,-1.727 3.28,-1.727c1.217,-0.084 2.148,0.483 2.882,1.417c0.819,0.96 0.879,2.175 0.595,3.507c-0.341,1.781 -2.034,2.26 -3.871,2.459" id="path166"/>
     </g>
     <g id="g168">
      <path fill-rule="nonzero" fill="#fff200" d="m229.54886,893.7542c-9.414,8.852 -20.245,14.253 -32.149,17.224c-26.016,6.247 -52.653,-2.66 -69.589,-23.331c-11.088,-12.865 -15.158,-28.192 -16.345,-45.413c-0.849,-8.372 -0.991,-16.965 -1.331,-25.365c0.059,-0.677 0.65,-0.82 1.188,-1.075c24.828,-1.978 51.465,-2.035 76.661,-2.231l33.195,0.45c10.492,0.397 20.644,0.595 30.88,1.668l0.594,0.595c0.338,10.348 -0.933,21.039 -1.726,31.216c-0.593,9.701 -3.365,18.864 -7.238,27.346c-3.648,6.871 -8.539,13.149 -14.14,18.916" id="path170"/>
     </g>
     <g id="g172">
      <path fill-rule="nonzero" fill="#231f20" d="m103.23499,820.3753c-2.403,0.283 -4.864,-0.451 -7.18,-0.849l-0.849,-0.846c2.175,-1.413 5.062,-1.698 7.889,-1.698c0.649,0.762 0.649,1.611 0.48,2.687l-0.34,0.706z" id="path174"/>
     </g>
     <g id="g176">
      <path fill-rule="nonzero" fill="#231f20" d="m260.17386,820.3753l-0.905,-0.706c0.256,-1.133 -0.763,-2.8 0.765,-3.279c2.658,0.337 5.569,0.14 7.776,1.613c-0.056,0.252 0.113,0.677 -0.198,0.789c-2.406,0.734 -4.977,1.077 -7.438,1.583" id="path178"/>
     </g>
     <g id="g180">
      <path fill-rule="nonzero" fill="#33b540" d="m95.20609,814.60772l-0.482,-0.736c-0.254,-3.366 0,-6.9 -0.254,-10.491c0.312,-0.593 0.452,-0.989 1.047,-1.33c22.395,-4.183 45.383,-5.032 69.165,-5.371c1.922,-0.254 4.044,0.736 5.485,-0.793c0.396,-10.235 -0.312,-18.946 -0.253,-29.35l3.393,-0.651c5.797,-0.509 9.02,-0.339 15.129,-0.339c1.185,0.253 2.797,-0.085 3.307,1.187l0.141,29.013c0.201,0.452 0.736,0.791 1.189,0.791c22.932,0.396 46.373,0.68 68.882,4.185c2.038,0.821 6.138,0.905 7.552,2.772l-1.106,9.725l-0.591,0.793c-2.403,-0.141 -4.665,-0.594 -7.04,-0.932c-25.453,-2.517 -51.156,-3.052 -77.254,-3.109c-29.071,0.649 -60.231,-0.484 -88.31,4.636" id="path182"/>
     </g>
     <g id="g184">
      <path fill-rule="nonzero" fill="#fff200" d="m107.87408,796.53741c-0.708,0.086 -1.16,-0.396 -1.328,-1.045c-0.059,-1.611 0.168,-3.141 0.28,-4.666l-0.112,-10.491l-0.65,-0.595c-0.932,-0.282 -1.837,0.059 -2.489,0.793c-0.14,3.45 0.368,7.382 -0.48,10.435c-0.706,-0.199 -1.33,-1.047 -1.611,-1.781c-2.377,-2.943 -3.959,-6.448 -6.76,-9.277c0.058,-0.227 -0.142,-0.62 0.198,-0.763c18.804,-5.854 38.711,-9.103 58.874,-11.141c3.902,0.056 8.255,-1.018 12.244,-0.621c1.073,7.917 0.424,16.85 0.763,24.63c-0.199,1.297 -1.669,1.1 -2.742,1.1c-0.397,-0.421 -0.596,-0.479 -0.85,-0.932c0.114,-6.788 -0.084,-13.573 0,-20.616l-0.734,-0.734c-0.85,-0.254 -2.064,-0.111 -2.46,0.877c0.253,6.844 -0.085,13.46 0.197,20.305l-0.593,1.1c-1.471,-0.084 -3.195,0.877 -4.328,-0.479c-0.14,-6.985 -0.14,-13.658 0,-20.332c-0.056,-0.537 -0.648,-0.933 -1.158,-0.933c-0.905,0.057 -1.95,0.112 -2.291,1.046c0.114,5.741 0.254,11.313 0.398,17.221c-0.2,0.847 -0.652,1.979 -0.144,2.856c-0.649,1.387 -2.515,0.934 -3.816,1.189c-0.425,-0.143 -0.621,-0.737 -0.962,-1.047c0.056,-6.646 -0.056,-13.094 0,-19.596l-0.708,-0.736c-1.101,-0.451 -2.205,0.198 -2.657,1.045l0.114,19.597l-0.454,0.737c-1.272,0.198 -2.715,0.677 -3.929,0.14c-0.793,-4.692 -0.057,-10.519 -0.538,-15.213c-0.594,-1.697 0.818,-3.365 -0.198,-4.977c-0.99,-0.537 -2.263,-0.452 -2.969,0.48c0.17,4.497 -0.48,9.077 0.114,13.742c-0.594,2.123 0.735,4.496 -0.708,6.306c-1.271,-0.085 -3.054,0.765 -4.213,-0.196c-0.452,-5.855 -0.113,-11.226 -0.255,-17.025c0.142,-0.761 0.425,-1.439 -0.197,-2.119c-0.906,-0.196 -2.122,-0.196 -2.8,0.594c-0.312,5.768 0.197,12.102 0,18.268l-0.452,0.876c-1.526,0.058 -3.253,1.046 -4.637,0c-0.34,-5.656 0.056,-11.762 0.112,-17.815c-0.198,-0.509 -0.649,-0.651 -1.133,-0.736c-0.932,0 -1.78,0.283 -2.261,1.216c0.283,5.881 0,11.143 0.283,17.081l-0.592,0.847c-1.471,0 -2.999,0.989 -4.328,0.197c0,-5.371 -0.452,-10.489 -0.113,-16.202l-0.227,-0.989c-0.565,-0.791 -1.498,-0.198 -2.318,-0.198c-0.508,0.311 -0.508,0.848 -0.791,1.245l0.14,16.089c-0.622,1.441 -2.404,1.048 -3.731,1.243" id="path186"/>
     </g>
     <g id="g188">
      <path fill-rule="nonzero" fill="#fff200" d="m249.92676,795.01098c-0.11,-5.373 0.284,-11.142 0.141,-16.4c-0.251,-0.85 -1.184,-1.13 -1.977,-1.187c-0.625,0.057 -1.273,0.253 -1.357,0.988l0.138,16.148l-0.847,0.789c-1.328,-0.055 -3.027,0.257 -3.875,-0.677c-0.113,-4.496 -0.168,-9.276 -0.168,-13.996c-0.48,-1.528 1.016,-3.735 -0.877,-4.668c-0.821,-0.309 -2.263,-0.451 -2.543,0.596l0.14,17.472l-0.171,0.341l-4.609,0.143l-0.452,-0.484l0.114,-18.519c-0.452,-0.988 -1.442,-1.188 -2.405,-1.188c-0.451,0.113 -0.676,0.594 -0.85,1.046l0.286,17.532l-0.481,1.129c-1.33,0 -3.308,0.484 -4.582,-0.393c-0.311,-6.165 0.144,-12.668 0.144,-19.002c0.139,-0.736 -0.455,-1.331 -1.076,-1.5c-0.709,-0.225 -1.724,-0.339 -2.179,0.596c0.057,6.022 -0.055,12.667 0.115,18.717l-0.342,0.991c-0.705,0.338 -1.498,0.338 -2.373,0.338c-0.933,-0.14 -2.123,-0.083 -2.375,-1.187c0.14,-3.337 0.252,-6.447 -0.141,-9.698l0.141,-9.757c-0.395,-0.877 -1.273,-1.075 -2.064,-1.13c-0.737,0.055 -1.187,0.451 -1.387,1.13l0.2,19.313l-0.481,0.735c-1.473,-0.114 -3.224,0.847 -4.328,-0.338c-0.027,-6.193 -0.311,-11.483 -0.311,-17.476c-0.481,-1.47 0.992,-2.77 -0.395,-3.847c-1.019,-0.197 -2.516,-0.789 -3.082,0.624c0.084,6.787 0.225,13.148 0.368,19.991l-0.368,0.708c-1.301,0.422 -3.421,0.735 -4.552,-0.255c0.111,-6.59 -0.284,-13.687 0,-20.926c-0.481,-0.988 -1.753,-0.988 -2.602,-0.931c-0.736,0.452 -0.933,1.131 -0.989,1.866c0.848,6.105 -0.143,13.685 0.395,19.65l-0.736,0.652c-0.988,0.198 -2.263,0.366 -2.853,-0.595l0,-24.432c-0.258,-0.734 0.449,-1.214 1.044,-1.27c18.069,0.592 34.866,3.59 51.748,7.127c6.841,1.186 13.346,3.248 19.993,4.973l0,0.597c-2.915,3.647 -5.826,7.632 -8.229,11.479c-0.992,-0.113 -0.144,-1.272 -0.736,-1.638l0.14,-7.072c-0.14,-0.792 0.34,-2.233 -0.847,-2.516c-0.679,-0.253 -2.092,-0.651 -2.546,0.31l0.115,9.278c-0.454,2.374 0.423,4.635 -0.313,6.756c-1.582,0.792 -3.702,0.255 -4.723,-0.933" id="path190"/>
     </g>
     <g id="g192">
      <path fill-rule="nonzero" fill="#ffffff" d="m105.94977,769.05297c-0.592,-0.849 0,-1.867 0.256,-2.715c2.743,-6.306 8.708,-11.904 15.891,-12.104c6.561,-0.394 12.413,2.575 16.599,7.579c0.142,0.341 0.254,0.934 -0.142,1.188c-11.027,1.671 -21.831,3.649 -32.604,6.052" id="path194"/>
     </g>
     <g id="g196">
      <path fill-rule="nonzero" fill="#ffffff" d="m255.70609,768.71319c-4.324,-0.934 -8.822,-1.923 -13.148,-2.716c-6.305,-1.129 -12.612,-2.203 -19.002,-3.25c-0.369,-1.074 1.019,-1.611 1.355,-2.516c4.779,-5.316 11.792,-7.579 18.975,-5.6c6.361,1.525 11.511,7.325 12.838,13.632c-0.227,0.421 -0.677,0.337 -1.018,0.45" id="path198"/>
     </g>
     <g id="g200">
      <path fill-rule="nonzero" fill="#231f20" d="m169.77158,893.6419c0.792,-2.317 0.596,-4.919 -0.196,-7.155c-1.386,-2.091 -3.593,-3.533 -5.911,-4.071c-2.318,-0.481 -4.44,0.142 -6.193,1.385c-2.234,1.415 -3.111,3.846 -3.337,6.392c0.226,2.43 0.765,4.78 2.885,6.447c2.46,2.009 5.966,2.317 8.963,1.075c1.557,-0.82 3.055,-2.461 3.789,-4.073" id="path202"/>
     </g>
     <g id="g204">
      <path fill-rule="nonzero" fill="#231f20" d="m206.98538,895.16918c1.242,-2.122 2.573,-5.118 1.188,-7.636c-0.99,-2.317 -3.055,-4.127 -5.402,-5.117c-2.714,-0.481 -5.288,0.058 -7.407,1.385c-2.15,1.952 -3.279,4.411 -3.055,7.125c0.596,2.828 2.121,6.306 5.345,7.154c3.478,1.075 7.21,-0.056 9.331,-2.911" id="path206"/>
     </g>
     <g id="g208">
      <path fill-rule="nonzero" fill="#231f20" d="m142.65189,503.389c2.262,-2.855 4.724,-5.626 7.495,-8.172c1.753,1.132 0.876,3.734 1.809,5.373c1.186,1.189 2.516,-0.112 3.844,-0.169c2.151,-3.083 5.12,-5.401 7.352,-8.541c1.076,-1.385 2.292,-3.11 3.734,-4.184c0.254,-0.368 0.396,-0.763 0.34,-1.3c-1.866,-0.143 -3.903,0.055 -5.6,0.733c-2.234,1.981 -3.675,4.44 -5.826,6.421c-2.176,-0.905 -0.591,-4.44 -2.77,-5.372c-1.895,0.142 -3.958,0.423 -4.92,2.261l-10.379,11.819c0.452,2.007 3.451,1.274 4.921,1.131" id="path210"/>
     </g>
     <g id="g212">
      <path fill-rule="nonzero" fill="#231f20" d="m233.95859,502.85479l-0.113,-1.076c-4.381,-4.638 -7.323,-8.229 -11.707,-12.868c-1.243,-0.79 -3.195,-0.989 -4.551,-0.395c-0.566,1.727 -0.229,3.847 -1.697,5.034c-3.704,-2.205 -5.118,-8.087 -10.265,-7.297c-0.537,0.143 -1.413,-0.253 -1.668,0.399c0.341,1.668 2.374,2.799 3.309,4.183c2.713,3.336 5.937,6.985 9.131,9.755c0.961,0.201 2.151,0.68 3.112,0.141c0.792,-1.779 0.848,-3.845 1.781,-5.514l0.622,0.144c2.433,2.996 5.006,5.37 7.862,8.114c1.555,0.17 2.856,-0.225 4.184,-0.62" id="path214"/>
     </g>
     <g id="g216">
      <path fill-rule="nonzero" fill="#231f20" d="m84.65587,326.06179c0.621,-1.723 1.697,-3.448 2.998,-4.918c-0.198,-0.791 -1.133,-1.33 -1.781,-1.642c-2.603,0.226 -3.395,3.055 -4.327,4.921c-0.338,1.245 -0.934,2.66 -0.453,3.904c0.708,0.592 1.441,1.326 2.461,1.326c1.243,-0.789 0.537,-2.459 1.102,-3.591" id="path218"/>
     </g>
     <g id="g220">
      <path fill-rule="nonzero" fill="#231f20" d="m289.69296,328.27079c1.076,-1.077 0,-2.349 0,-3.536c-0.849,-1.921 -1.78,-3.986 -3.59,-5.429c-0.99,-0.455 -1.724,0.311 -2.375,0.904c-0.82,1.075 0.848,1.811 1.244,2.659c1.131,1.781 1.924,3.676 1.924,5.995c0.848,0.705 2.203,0.112 2.797,-0.593" id="path222"/>
     </g>
     <g id="g224">
      <path fill-rule="nonzero" fill="#231f20" d="m77.22028,325.3274c0.48,-1.725 2.599,-3.109 3.731,-4.24c-0.056,-1.132 -1.384,-0.989 -2.206,-1.36c-1.357,-0.561 -2.431,0.934 -3.167,1.953c-1.273,1.867 -2.317,3.988 -2.206,6.334c0.877,0.593 1.81,1.245 2.942,0.849l0.906,-3.536z" id="path226"/>
     </g>
     <g id="g228">
      <path fill-rule="nonzero" fill="#231f20" d="m297.52689,327.84409c0.539,-3.194 -1.386,-6.021 -3.79,-8.228c-1.273,-0.114 -2.855,-0.31 -3.702,0.594c-0.342,1.386 1.383,1.215 1.781,2.064c1.357,1.781 2.797,3.535 2.854,5.853c0.651,0.849 2.206,0.396 2.857,-0.283" id="path230"/>
     </g>
     <g id="g232">
      <path fill-rule="nonzero" fill="#231f20" d="m194.11777,526.4378c1.072,-2.771 1.271,-6.506 -0.595,-8.965c-1.416,-1.894 -3.167,-2.826 -4.635,-3.731c0,-12.754 -0.484,-26.214 0,-38.967l0.704,-0.595c24.377,-1.612 46.574,-13.969 60.373,-35.121c6.504,-10.318 9.84,-22.027 11.507,-34.272l0.793,-0.735c7.096,0.34 14.139,0.257 21.178,0.905l2.067,1.076l14.42,12.951c2.431,1.327 3.365,-2.208 5.035,-3.252l-0.143,-0.934l-9.273,-8.653l0.451,-0.454c5.176,-0.141 10.433,0.793 15.412,0.143c0.254,-1.866 1.187,-4.781 -0.34,-5.966c-4.723,-0.284 -10.209,-0.396 -14.931,-0.877l-0.395,-0.339c3.309,-2.915 7.098,-5.147 10.406,-8.344l-0.255,-1.101c-1.61,-0.85 -2.007,-4.357 -4.383,-3.082c-5.627,4.014 -11.368,8.566 -17.221,12.414c-6.559,-0.425 -14.251,-0.622 -21.037,-1.216c-0.595,-0.114 -0.879,-0.594 -1.19,-1.075c0.793,-6.025 0.737,-12.386 1.358,-18.521c3.478,-1.981 7.863,-1.442 11.31,-3.363l1.246,-1.277l0.168,-17.474c-1.951,-2.318 -4.975,-2.318 -7.633,-3.251c-0.255,-0.34 -0.537,-0.82 -0.255,-1.188c4.382,-7.042 9.67,-14.083 15.183,-20.672c-0.392,-1.243 -1.977,-1.186 -2.996,-1.781c-4.1,-0.707 -7.746,-2.516 -11.791,-3.251c-0.934,-1.415 -0.678,-3.337 -1.217,-4.922c-2.513,-9.077 -11.225,-17.049 -20.726,-18.265c-10.492,-1.387 -20.643,3.394 -25.733,12.695c-0.622,0.453 -0.763,1.586 -1.753,1.529c-16.995,-1.64 -34.721,-2.404 -51.747,-1.188c-3.591,0.255 -6.758,0.395 -10.293,0.848c-2.036,-0.143 -4.438,0.791 -6.42,0.14c-3.843,-7.916 -12.045,-13.148 -20.612,-13.884c-10.153,-1.186 -19.823,4.384 -24.375,13.291c-1.585,2.912 -2.377,6.165 -2.827,9.559c-4.894,1.866 -9.983,3.11 -14.961,4.778c-1.187,1.528 1.528,2.288 1.925,3.591c4.948,5.515 8.906,11.877 13.148,17.9c0.424,1.017 -0.849,1.103 -1.329,1.413c-2.234,0.68 -4.836,1.017 -6.278,2.884l0,17.335c0.848,2.178 3.365,2.262 5.202,3.111c2.32,0.113 4.411,1.131 6.73,1.442l0.68,0.961c0,6.277 0.452,11.819 0.961,18.041c-0.056,0.51 -0.453,1.132 -0.961,1.188c-6.786,0.337 -14.054,0.82 -20.927,0.933c-2.94,-1.048 -4.919,-3.646 -7.662,-5.231c-3.167,-2.377 -6.305,-4.721 -9.559,-7.296c-2.318,0 -3.391,2.632 -4.325,4.299c0.734,1.469 2.687,1.782 3.591,3.11c2.263,1.016 3.535,3.591 5.91,4.327c0.142,0.394 0.594,0.678 0.48,1.214c-1.95,0.511 -3.731,0.369 -5.796,0.595l-9.02,0.592l-0.707,0.794c0.707,1.723 -0.82,4.976 1.783,5.314c4.777,-0.141 9.273,-0.818 13.854,-0.423c0.34,0.198 0.283,0.766 0.086,1.019l-8.427,7.973c-0.312,0.254 -0.143,0.652 -0.143,0.99c1.273,1.216 2.518,4.184 4.639,3.451c5.258,-5.119 10.179,-9.615 15.523,-14.169c7.127,-0.79 14.11,-0.706 21.265,-1.357c1.216,0.143 1.129,1.498 1.47,2.375c1.244,5.657 1.613,11.707 3.931,16.855c8.484,26.326 35.715,47.846 63.285,50.218c1.441,0.341 3.788,-0.337 4.835,1.076c0.087,13.008 0.481,26.666 0.142,39.166c-0.989,0.648 -2.262,1.525 -3.308,2.657c-2.405,2.4 -3.139,5.851 -1.925,9.105c1.049,3.449 4.584,5.908 8.09,6.192c3.788,0.087 7.237,-1.866 8.963,-5.258" id="path234"/>
     </g>
     <g id="g236">
      <path fill-rule="nonzero" fill="#ed1c24" d="m185.29749,526.18191c-1.218,-0.199 -2.548,-0.82 -3.142,-2.121c-0.366,-0.878 -0.594,-2.631 0.256,-3.535c0.736,-1.046 1.865,-1.727 3.28,-1.727c1.217,-0.084 2.148,0.483 2.882,1.417c0.819,0.96 0.879,2.175 0.595,3.507c-0.341,1.781 -2.034,2.26 -3.871,2.459" id="path238"/>
     </g>
     <g id="g240">
      <path fill-rule="nonzero" fill="#fff200" d="m233.70367,448.24828c-9.414,8.852 -20.245,14.253 -32.149,17.224c-26.016,6.247 -52.653,-2.66 -69.589,-23.331c-11.088,-12.865 -15.158,-28.192 -16.345,-45.413c-0.849,-8.372 -0.991,-16.965 -1.331,-25.365c0.059,-0.677 0.65,-0.82 1.188,-1.075c24.828,-1.978 51.465,-2.035 76.661,-2.231l33.195,0.45c10.492,0.397 20.644,0.595 30.88,1.668l0.594,0.595c0.338,10.348 -0.933,21.039 -1.726,31.216c-0.593,9.701 -3.365,18.864 -7.238,27.346c-3.648,6.871 -8.539,13.149 -14.14,18.916" id="path242"/>
     </g>
     <g id="g244">
      <path fill-rule="nonzero" fill="#231f20" d="m107.38968,374.86939c-2.403,0.283 -4.864,-0.451 -7.18,-0.849l-0.849,-0.846c2.175,-1.413 5.062,-1.698 7.889,-1.698c0.649,0.762 0.649,1.611 0.48,2.687l-0.34,0.706z" id="path246"/>
     </g>
     <g id="g248">
      <path fill-rule="nonzero" fill="#231f20" d="m264.32867,374.86939l-0.905,-0.706c0.256,-1.133 -0.763,-2.8 0.765,-3.279c2.658,0.337 5.569,0.14 7.776,1.613c-0.056,0.252 0.113,0.677 -0.198,0.789c-2.406,0.734 -4.977,1.077 -7.438,1.583" id="path250"/>
     </g>
     <g id="g252">
      <path fill-rule="nonzero" fill="#33b540" d="m99.36087,369.10189l-0.482,-0.736c-0.254,-3.366 0,-6.9 -0.254,-10.491c0.312,-0.593 0.452,-0.989 1.047,-1.33c22.395,-4.183 45.383,-5.032 69.165,-5.371c1.922,-0.254 4.044,0.736 5.485,-0.793c0.396,-10.235 -0.312,-18.946 -0.253,-29.35l3.393,-0.651c5.797,-0.509 9.02,-0.339 15.129,-0.339c1.185,0.253 2.797,-0.085 3.307,1.187l0.141,29.013c0.201,0.452 0.736,0.791 1.189,0.791c22.932,0.396 46.373,0.68 68.882,4.185c2.038,0.821 6.138,0.905 7.552,2.772l-1.106,9.725l-0.591,0.793c-2.403,-0.141 -4.665,-0.594 -7.04,-0.932c-25.453,-2.517 -51.156,-3.052 -77.254,-3.109c-29.071,0.649 -60.231,-0.484 -88.31,4.636" id="path254"/>
     </g>
     <g id="g256">
      <path fill-rule="nonzero" fill="#fff200" d="m112.02887,351.03159c-0.708,0.086 -1.16,-0.396 -1.328,-1.045c-0.059,-1.611 0.168,-3.141 0.28,-4.666l-0.112,-10.491l-0.65,-0.595c-0.932,-0.282 -1.837,0.059 -2.489,0.793c-0.14,3.45 0.368,7.382 -0.48,10.435c-0.706,-0.199 -1.33,-1.047 -1.611,-1.781c-2.377,-2.943 -3.959,-6.448 -6.76,-9.277c0.058,-0.227 -0.142,-0.62 0.198,-0.763c18.804,-5.854 38.711,-9.103 58.874,-11.141c3.902,0.056 8.255,-1.018 12.244,-0.621c1.073,7.917 0.424,16.85 0.763,24.63c-0.199,1.297 -1.669,1.1 -2.742,1.1c-0.397,-0.421 -0.596,-0.479 -0.85,-0.932c0.114,-6.788 -0.084,-13.573 0,-20.616l-0.734,-0.734c-0.85,-0.254 -2.064,-0.111 -2.46,0.877c0.253,6.844 -0.085,13.46 0.197,20.305l-0.593,1.1c-1.471,-0.084 -3.195,0.877 -4.328,-0.479c-0.14,-6.985 -0.14,-13.658 0,-20.332c-0.056,-0.537 -0.648,-0.933 -1.158,-0.933c-0.905,0.057 -1.95,0.112 -2.291,1.046c0.114,5.741 0.254,11.313 0.398,17.221c-0.2,0.847 -0.652,1.979 -0.144,2.856c-0.649,1.387 -2.515,0.934 -3.816,1.189c-0.425,-0.143 -0.621,-0.737 -0.962,-1.047c0.056,-6.646 -0.056,-13.094 0,-19.596l-0.708,-0.736c-1.101,-0.451 -2.205,0.198 -2.657,1.045l0.114,19.597l-0.454,0.737c-1.272,0.198 -2.715,0.677 -3.929,0.14c-0.793,-4.692 -0.057,-10.519 -0.538,-15.213c-0.594,-1.697 0.818,-3.365 -0.198,-4.977c-0.99,-0.537 -2.263,-0.452 -2.969,0.48c0.17,4.497 -0.48,9.077 0.114,13.742c-0.594,2.123 0.735,4.496 -0.708,6.306c-1.271,-0.085 -3.054,0.765 -4.213,-0.196c-0.452,-5.855 -0.113,-11.226 -0.255,-17.025c0.142,-0.761 0.425,-1.439 -0.197,-2.119c-0.906,-0.196 -2.122,-0.196 -2.8,0.594c-0.312,5.768 0.197,12.102 0,18.268l-0.452,0.876c-1.526,0.058 -3.253,1.046 -4.637,0c-0.34,-5.656 0.056,-11.762 0.112,-17.815c-0.198,-0.509 -0.649,-0.651 -1.133,-0.736c-0.932,0 -1.78,0.283 -2.261,1.216c0.283,5.881 0,11.143 0.283,17.081l-0.592,0.847c-1.471,0 -2.999,0.989 -4.328,0.197c0,-5.371 -0.452,-10.489 -0.113,-16.202l-0.227,-0.989c-0.565,-0.791 -1.498,-0.198 -2.318,-0.198c-0.508,0.311 -0.508,0.848 -0.791,1.245l0.14,16.089c-0.622,1.441 -2.404,1.048 -3.731,1.243" id="path258"/>
     </g>
     <g id="g260">
      <path fill-rule="nonzero" fill="#fff200" d="m254.08157,349.5052c-0.11,-5.373 0.284,-11.142 0.141,-16.4c-0.251,-0.85 -1.184,-1.13 -1.977,-1.187c-0.625,0.057 -1.273,0.253 -1.357,0.988l0.138,16.148l-0.847,0.789c-1.328,-0.055 -3.027,0.257 -3.875,-0.677c-0.113,-4.496 -0.168,-9.276 -0.168,-13.996c-0.48,-1.528 1.016,-3.735 -0.877,-4.668c-0.821,-0.309 -2.263,-0.451 -2.543,0.596l0.14,17.472l-0.171,0.341l-4.609,0.143l-0.452,-0.484l0.114,-18.519c-0.452,-0.988 -1.442,-1.188 -2.405,-1.188c-0.451,0.113 -0.676,0.594 -0.85,1.046l0.286,17.532l-0.481,1.129c-1.33,0 -3.308,0.484 -4.582,-0.393c-0.311,-6.165 0.144,-12.668 0.144,-19.002c0.139,-0.736 -0.455,-1.331 -1.076,-1.5c-0.709,-0.225 -1.724,-0.339 -2.179,0.596c0.057,6.022 -0.055,12.667 0.115,18.717l-0.342,0.991c-0.705,0.338 -1.498,0.338 -2.373,0.338c-0.933,-0.14 -2.123,-0.083 -2.375,-1.187c0.14,-3.337 0.252,-6.447 -0.141,-9.698l0.141,-9.757c-0.395,-0.877 -1.273,-1.075 -2.064,-1.13c-0.737,0.055 -1.187,0.451 -1.387,1.13l0.2,19.313l-0.481,0.735c-1.473,-0.114 -3.224,0.847 -4.328,-0.338c-0.027,-6.193 -0.311,-11.483 -0.311,-17.476c-0.481,-1.47 0.992,-2.77 -0.395,-3.847c-1.019,-0.197 -2.516,-0.789 -3.082,0.624c0.084,6.787 0.225,13.148 0.368,19.991l-0.368,0.708c-1.301,0.422 -3.421,0.735 -4.552,-0.255c0.111,-6.59 -0.284,-13.687 0,-20.926c-0.481,-0.988 -1.753,-0.988 -2.602,-0.931c-0.736,0.452 -0.933,1.131 -0.989,1.866c0.848,6.105 -0.143,13.685 0.395,19.65l-0.736,0.652c-0.988,0.198 -2.263,0.366 -2.853,-0.595l0,-24.432c-0.258,-0.734 0.449,-1.214 1.044,-1.27c18.069,0.592 34.866,3.59 51.748,7.127c6.841,1.186 13.346,3.248 19.993,4.973l0,0.597c-2.915,3.647 -5.826,7.632 -8.229,11.479c-0.992,-0.113 -0.144,-1.272 -0.736,-1.638l0.14,-7.072c-0.14,-0.792 0.34,-2.233 -0.847,-2.516c-0.679,-0.253 -2.092,-0.651 -2.546,0.31l0.115,9.278c-0.454,2.374 0.423,4.635 -0.313,6.756c-1.582,0.792 -3.702,0.255 -4.723,-0.933" id="path262"/>
     </g>
     <g id="g264">
      <path fill-rule="nonzero" fill="#ffffff" d="m110.10458,323.5472c-0.592,-0.849 0,-1.867 0.256,-2.715c2.743,-6.306 8.708,-11.904 15.891,-12.104c6.561,-0.394 12.413,2.575 16.599,7.579c0.142,0.341 0.254,0.934 -0.142,1.188c-11.027,1.671 -21.831,3.649 -32.604,6.052" id="path266"/>
     </g>
     <g id="g268">
      <path fill-rule="nonzero" fill="#ffffff" d="m259.86087,323.2073c-4.324,-0.934 -8.822,-1.923 -13.148,-2.716c-6.305,-1.129 -12.612,-2.203 -19.002,-3.25c-0.369,-1.074 1.019,-1.611 1.355,-2.516c4.779,-5.316 11.792,-7.579 18.975,-5.6c6.361,1.525 11.511,7.325 12.838,13.632c-0.227,0.421 -0.677,0.337 -1.018,0.45" id="path270"/>
     </g>
     <g id="g272">
      <path fill-rule="nonzero" fill="#231f20" d="m173.92636,448.13601c0.792,-2.317 0.596,-4.919 -0.196,-7.155c-1.386,-2.091 -3.593,-3.533 -5.911,-4.071c-2.318,-0.481 -4.44,0.142 -6.193,1.385c-2.234,1.415 -3.111,3.846 -3.337,6.392c0.226,2.43 0.765,4.78 2.885,6.447c2.46,2.009 5.966,2.317 8.963,1.075c1.557,-0.82 3.055,-2.461 3.789,-4.073" id="path274"/>
     </g>
     <g id="g276">
      <path fill-rule="nonzero" fill="#231f20" d="m211.14017,449.66338c1.242,-2.122 2.573,-5.118 1.188,-7.636c-0.99,-2.317 -3.055,-4.127 -5.402,-5.117c-2.714,-0.481 -5.288,0.058 -7.407,1.385c-2.15,1.952 -3.279,4.411 -3.055,7.125c0.596,2.828 2.121,6.306 5.345,7.154c3.478,1.075 7.21,-0.056 9.331,-2.911" id="path278"/>
     </g>
    </g>
   </g>
  </g>
 </g>
</svg>