<svg width="8268" height="1890" xmlns="http://www.w3.org/2000/svg" clip-rule="evenodd" version="1.1" xml:space="preserve">

 <g>
  <title>Layer 1</title>
  <g id="Warstwa_x0020_1">
   <metadata id="CorelCorpID_0Corel-Layer"/>
   <path id="svg_1" fill="#3E4095" d="m4387,350l-72,357c-52,-30 -199,-83 -245,-83c-29,0 -60,1 -82,12c-22,11 -30,31 -39,48c-7,58 44,111 146,189c228,174 275,578 -4,730c-126,69 -287,101 -431,101c-88,0 -232,-18 -338,-54l67,-362c111,99 455,191 463,-5c4,-110 -193,-232 -239,-285c-130,-146 -156,-298 -82,-437c33,-63 88,-124 162,-181c229,-134 515,-79 694,-30z" class="fil0"/>
   <path id="svg_2" fill="#ED3237" d="m2392,719c128,0 199,-37 214,-111c0,-44 -15,-75 -46,-92c-30,-16 -71,-25 -121,-25l-47,228zm-55,269l-51,249c72,0 127,-10 163,-30c37,-21 59,-48 66,-83l4,-28c0,-37 -17,-64 -51,-82c-34,-17 -78,-26 -131,-26zm-524,535l271,-1314l494,0c168,0 291,32 367,97c58,50 87,116 87,197l-4,56c-20,92 -61,163 -122,212c-61,49 -135,74 -220,74c85,1 151,25 195,71c40,41 60,95 60,161c0,18 -2,33 -4,44c-3,11 -5,19 -5,24c-27,132 -100,232 -220,298c-96,53 -210,80 -342,80l-557,0zm-670,-708c65,0 116,-15 155,-45c38,-30 61,-70 71,-119l4,-36c0,-83 -55,-124 -165,-124l-65,324zm-561,708l271,-1314l402,0c193,0 332,26 417,78c85,52 127,132 127,239c0,15 0,30 0,45c-4,22 -7,39 -8,49c-19,91 -54,166 -105,226c-51,60 -121,103 -209,130l200,547l-451,0l-118,-542l-112,542l-414,0z" class="fil1"/>
   <path id="svg_3" fill="#3E4095" d="m4989,1671l-420,0l207,-1012l-230,-1l66,-326l889,0l-66,327l-239,0l-207,1012zm1395,0l-432,0l6,-174l-284,0l-66,174l-432,0l643,-1339l510,0l55,1339zm-595,-458l176,0l39,-561l-215,561zm1466,458l-731,0l272,-1339l416,0l-209,1023l315,0l-63,316z" class="fil0"/>
   <path id="svg_4" fill="#ED3237" d="m3120,1181c110,100 455,192 463,-5c4,-109 -193,-232 -239,-284c-130,-147 -156,-299 -82,-438c33,-63 88,-124 162,-181c103,-78 281,-87 412,-87c27,0 54,2 81,5l3708,0l0,56l-3524,0c5,2 12,-7 17,-4l-72,357c-53,-30 -199,-82 -245,-82c-29,0 -60,0 -82,11c-22,12 -31,31 -39,48c-7,58 44,111 146,189c228,174 275,578 -4,731c-126,69 -287,100 -431,100c-88,0 -232,-18 -338,-54l67,-362z" class="fil1"/>
   <path id="svg_5" fill="#3E4095" d="m7953,1700l-6,-32c15,-2 26,-7 33,-16c8,-8 12,-19 12,-34c0,-15 -4,-26 -10,-34c-7,-7 -15,-11 -24,-11c-9,0 -15,4 -20,10c-3,5 -7,16 -12,33c-7,24 -13,41 -17,50c-5,9 -12,16 -21,21c-9,5 -18,7 -29,7c-9,0 -18,-2 -26,-6c-8,-3 -15,-9 -20,-16c-5,-5 -8,-12 -11,-20c-3,-9 -4,-18 -4,-29c0,-15 2,-28 7,-39c5,-12 11,-20 20,-26c8,-5 19,-9 33,-11l5,32c-11,2 -20,6 -26,13c-6,7 -9,16 -9,29c0,15 2,26 8,32c5,7 12,10 19,10c5,0 9,-1 13,-4c4,-3 7,-7 10,-13c1,-3 4,-13 9,-28c7,-24 12,-40 17,-49c4,-9 10,-16 19,-21c8,-5 18,-8 31,-8c12,0 23,3 34,9c11,7 19,16 25,28c6,12 9,25 9,41c0,25 -6,44 -18,57c-11,13 -28,21 -51,25zm146,-199l-297,0l0,-30l28,0c-11,-6 -19,-14 -24,-23c-6,-9 -8,-20 -8,-32c0,-17 4,-31 14,-44c9,-12 22,-22 40,-28c17,-7 36,-10 56,-10c22,0 42,4 59,11c18,7 31,17 41,30c9,14 14,28 14,43c0,11 -3,21 -8,29c-5,9 -12,16 -19,22l104,0l0,32zm-188,-29c27,0 48,-5 61,-15c13,-10 20,-23 20,-37c0,-14 -7,-27 -21,-37c-13,-10 -35,-16 -63,-16c-28,0 -48,6 -62,16c-13,10 -20,22 -20,36c0,14 7,26 22,37c14,10 35,16 63,16zm106,-186l-42,0l0,-38l42,0l0,38zm0,-180l-30,0l-156,-123c1,14 1,26 1,37l0,79l-30,0l0,-158l24,0l136,104l25,21c-1,-15 -1,-29 -1,-42l0,-89l31,0l0,171zm-107,-290c-40,0 -69,-10 -89,-30c-15,-16 -23,-36 -23,-60c0,-27 9,-48 29,-65c19,-17 46,-25 80,-25c27,0 49,3 65,11c15,7 28,18 37,32c8,14 13,30 13,47c0,27 -10,48 -29,65c-19,17 -47,25 -83,25zm0,-34c27,0 48,-5 61,-16c14,-10 21,-24 21,-40c0,-16 -7,-30 -21,-41c-14,-10 -34,-16 -63,-16c-26,0 -46,6 -60,16c-13,11 -20,25 -20,41c0,16 7,30 20,40c14,11 34,16 62,16zm107,-194l-42,0l0,-37l42,0l0,37zm-107,-82c-40,0 -69,-9 -89,-29c-15,-17 -23,-37 -23,-61c0,-26 9,-48 29,-65c19,-16 46,-25 80,-25c27,0 49,4 65,11c15,8 28,19 37,33c8,14 13,29 13,46c0,27 -10,49 -29,66c-19,16 -47,24 -83,24zm0,-33c27,0 48,-5 61,-16c14,-11 21,-24 21,-41c0,-16 -7,-29 -21,-40c-14,-11 -34,-16 -63,-16c-26,0 -46,5 -60,16c-13,11 -20,24 -20,40c0,17 7,30 20,41c14,11 34,16 62,16zm107,-194l-42,0l0,-38l42,0l0,38z" class="fil0"/>
   <path id="svg_6" fill="#3E4095" d="m205,1649l3163,0c-8,-1 -15,-3 -22,-5l252,0l0,61l-5,0l-3388,0l0,-56z" class="fil0"/>
  </g>
 </g>
</svg>