<svg version="1.2" baseProfile="tiny" id="Calque_1" xmlns="http://www.w3.org/2000/svg" xmlns:xlink="http://www.w3.org/1999/xlink" x="0px" y="0px" viewBox="0 0 500 145" overflow="visible" xml:space="preserve">
<g>
	<g>
		<path fill="#94C123" d="M173,129.2c-0.9,0-1.7-0.2-2.4-0.6c-0.7-0.4-1.2-1-1.6-1.7c-0.4-0.7-0.6-1.5-0.6-2.5
			c0-0.7,0.1-1.3,0.3-1.9c0.2-0.6,0.5-1.1,1-1.5c0.4-0.4,0.9-0.8,1.5-1c0.6-0.2,1.2-0.4,1.9-0.4c0.9,0,1.6,0.2,2.2,0.6
			s1.1,0.9,1.4,1.5l-0.3,0.4v-2.2h1.8v9h-1.8v-2.2l0.3,0.4c-0.3,0.6-0.8,1.1-1.4,1.5S173.9,129.2,173,129.2z M173.3,127.4
			c0.5,0,1-0.1,1.5-0.4c0.4-0.2,0.8-0.6,1-1c0.2-0.5,0.4-1,0.4-1.6c0-0.6-0.1-1.1-0.4-1.6c-0.2-0.5-0.6-0.8-1-1
			c-0.4-0.2-0.9-0.4-1.5-0.4c-0.6,0-1,0.1-1.5,0.4c-0.4,0.2-0.8,0.6-1,1c-0.2,0.5-0.4,1-0.4,1.6c0,0.6,0.1,1.1,0.4,1.6
			c0.2,0.5,0.6,0.8,1,1C172.2,127.3,172.7,127.4,173.3,127.4z"></path>
		<path fill="#94C123" d="M184.6,129.2c-1,0-1.8-0.2-2.5-0.6s-1.3-1-1.7-1.7c-0.4-0.7-0.6-1.5-0.6-2.5c0-0.7,0.1-1.3,0.4-1.9
			c0.2-0.6,0.6-1.1,1.1-1.5c0.5-0.4,1-0.8,1.6-1s1.3-0.4,2-0.4c0.6,0,1.2,0.1,1.7,0.2c0.5,0.2,1,0.4,1.4,0.7l-1,1.5
			c-0.3-0.2-0.6-0.4-1-0.6c-0.4-0.1-0.7-0.2-1.2-0.2c-0.6,0-1.2,0.1-1.6,0.4s-0.8,0.6-1.1,1c-0.3,0.4-0.4,1-0.4,1.6
			c0,0.9,0.3,1.7,0.8,2.2c0.6,0.5,1.3,0.8,2.3,0.8c0.5,0,0.9-0.1,1.3-0.3c0.4-0.2,0.7-0.4,1-0.7l1,1.5c-0.5,0.4-1,0.7-1.6,0.9
			S185.2,129.2,184.6,129.2z"></path>
		<path fill="#94C123" d="M188.2,121.6v-1.7h2.2v1.7H188.2z M193.1,129.2c-0.9,0-1.6-0.3-2.1-0.8c-0.5-0.5-0.8-1.3-0.8-2.3v-8.8h2
			v2.6h2.5v1.7h-2.5v4.1c0,0.6,0.1,1.1,0.4,1.3c0.2,0.3,0.6,0.4,1,0.4c0.2,0,0.4,0,0.6-0.1c0.2,0,0.4-0.1,0.5-0.2l0.4,1.6
			c-0.3,0.1-0.6,0.2-0.9,0.3C193.8,129.2,193.5,129.2,193.1,129.2z"></path>
		<path fill="#94C123" d="M197.7,118.3c-0.4,0-0.7-0.1-0.9-0.3c-0.3-0.2-0.4-0.5-0.4-0.9c0-0.4,0.1-0.7,0.4-0.9
			c0.3-0.2,0.6-0.4,0.9-0.4c0.4,0,0.7,0.1,0.9,0.4c0.3,0.2,0.4,0.5,0.4,0.9c0,0.4-0.1,0.7-0.4,0.9
			C198.3,118.2,198,118.3,197.7,118.3z M196.7,128.9v-9h2v9H196.7z"></path>
		<path fill="#94C123" d="M203.2,128.9l-3.4-9h2.2l2.5,7.3h-0.3l2.5-7.3h2.1l-3.3,9H203.2z"></path>
		<path fill="#94C123" d="M214,129.2c-1,0-1.8-0.2-2.6-0.6c-0.7-0.4-1.3-1-1.7-1.7c-0.4-0.7-0.6-1.6-0.6-2.5c0-0.7,0.1-1.3,0.4-1.9
			c0.2-0.6,0.6-1.1,1-1.5c0.4-0.4,0.9-0.8,1.5-1c0.6-0.2,1.2-0.4,1.9-0.4c0.7,0,1.4,0.1,2,0.4s1.1,0.6,1.5,1.1
			c0.4,0.5,0.7,1,0.8,1.7c0.2,0.6,0.2,1.3,0.1,2.1H211c0,0.5,0.1,1,0.4,1.4c0.2,0.4,0.6,0.7,1.1,0.9c0.5,0.2,1,0.3,1.6,0.3
			c0.5,0,1-0.1,1.5-0.2c0.5-0.2,0.9-0.4,1.3-0.7l0.8,1.4c-0.3,0.2-0.6,0.4-1.1,0.6c-0.4,0.2-0.8,0.3-1.3,0.4
			C214.9,129.2,214.4,129.2,214,129.2z M211.2,123.4h5.1c0-0.7-0.2-1.2-0.7-1.6c-0.4-0.4-1-0.6-1.8-0.6c-0.7,0-1.4,0.2-1.9,0.6
			C211.5,122.2,211.2,122.7,211.2,123.4z"></path>
		<path fill="#94C123" d="M222.7,121.6v-1.7h2.2v1.7H222.7z M227.6,129.2c-0.9,0-1.6-0.3-2.1-0.8c-0.5-0.5-0.8-1.3-0.8-2.3v-8.8h2
			v2.6h2.5v1.7h-2.5v4.1c0,0.6,0.1,1.1,0.4,1.3c0.2,0.3,0.6,0.4,1,0.4c0.2,0,0.4,0,0.6-0.1c0.2,0,0.4-0.1,0.5-0.2l0.4,1.6
			c-0.3,0.1-0.6,0.2-0.9,0.3C228.3,129.2,228,129.2,227.6,129.2z"></path>
		<path fill="#94C123" d="M235.2,129.2c-1,0-1.8-0.2-2.6-0.6c-0.7-0.4-1.3-1-1.7-1.7c-0.4-0.7-0.6-1.6-0.6-2.5
			c0-0.7,0.1-1.3,0.4-1.9c0.2-0.6,0.6-1.1,1-1.5c0.4-0.4,0.9-0.8,1.5-1c0.6-0.2,1.2-0.4,1.9-0.4c0.7,0,1.4,0.1,2,0.4
			c0.6,0.3,1.1,0.6,1.5,1.1c0.4,0.5,0.7,1,0.8,1.7c0.2,0.6,0.2,1.3,0.1,2.1h-7.2c0,0.5,0.1,1,0.4,1.4c0.2,0.4,0.6,0.7,1.1,0.9
			c0.5,0.2,1,0.3,1.6,0.3c0.5,0,1-0.1,1.5-0.2c0.5-0.2,0.9-0.4,1.3-0.7l0.8,1.4c-0.3,0.2-0.6,0.4-1.1,0.6c-0.4,0.2-0.8,0.3-1.3,0.4
			C236.1,129.2,235.6,129.2,235.2,129.2z M232.4,123.4h5.1c0-0.7-0.2-1.2-0.7-1.6c-0.4-0.4-1-0.6-1.8-0.6c-0.7,0-1.4,0.2-1.9,0.6
			C232.7,122.2,232.4,122.7,232.4,123.4z"></path>
		<path fill="#94C123" d="M245.3,129.2c-1,0-1.8-0.2-2.5-0.6c-0.7-0.4-1.3-1-1.7-1.7c-0.4-0.7-0.6-1.5-0.6-2.5
			c0-0.7,0.1-1.3,0.4-1.9s0.6-1.1,1.1-1.5c0.5-0.4,1-0.8,1.6-1c0.6-0.2,1.3-0.4,2-0.4c0.6,0,1.2,0.1,1.7,0.2c0.5,0.2,1,0.4,1.4,0.7
			l-1,1.5c-0.3-0.2-0.6-0.4-1-0.6c-0.4-0.1-0.7-0.2-1.2-0.2c-0.6,0-1.2,0.1-1.6,0.4c-0.5,0.2-0.8,0.6-1.1,1c-0.3,0.4-0.4,1-0.4,1.6
			c0,0.9,0.3,1.7,0.8,2.2c0.6,0.5,1.3,0.8,2.3,0.8c0.5,0,0.9-0.1,1.3-0.3c0.4-0.2,0.7-0.4,1-0.7l1,1.5c-0.5,0.4-1,0.7-1.6,0.9
			C246.5,129.1,245.9,129.2,245.3,129.2z"></path>
		<path fill="#94C123" d="M250,128.9v-13.2h2v6l-0.4-0.4c0.4-0.6,0.9-1,1.5-1.3c0.6-0.3,1.2-0.4,1.8-0.4c0.8,0,1.5,0.2,2.1,0.5
			c0.5,0.3,1,0.8,1.2,1.3c0.3,0.5,0.4,1.1,0.4,1.6v5.9h-2v-5.3c0-0.6-0.2-1.1-0.6-1.5c-0.4-0.4-0.9-0.6-1.6-0.6
			c-0.5,0-0.9,0.1-1.2,0.3c-0.3,0.2-0.6,0.5-0.8,0.8c-0.2,0.4-0.3,0.8-0.3,1.3v5.1H250z"></path>
		<path fill="#94C123" d="M260.8,128.9v-9h2v1.2c0.4-0.5,0.8-0.9,1.3-1.1c0.5-0.2,1-0.3,1.6-0.3c0.8,0,1.5,0.2,2.1,0.5
			c0.5,0.3,0.9,0.8,1.2,1.3c0.3,0.5,0.4,1.1,0.4,1.6v6h-2v-5.3c0-0.6-0.2-1.2-0.6-1.6c-0.4-0.4-0.9-0.6-1.6-0.6
			c-0.5,0-0.9,0.1-1.2,0.3c-0.4,0.2-0.6,0.5-0.8,0.8c-0.2,0.4-0.3,0.8-0.3,1.2v5.1H260.8z"></path>
		<path fill="#94C123" d="M275.6,129.2c-0.9,0-1.8-0.2-2.5-0.7c-0.7-0.4-1.3-1-1.7-1.7c-0.4-0.7-0.6-1.5-0.6-2.4
			c0-0.6,0.1-1.3,0.4-1.8c0.2-0.6,0.6-1.1,1-1.5c0.4-0.4,1-0.8,1.6-1.1c0.6-0.3,1.3-0.4,2-0.4c0.9,0,1.8,0.2,2.5,0.7
			c0.7,0.4,1.3,1,1.7,1.7c0.4,0.7,0.6,1.5,0.6,2.4c0,0.6-0.1,1.2-0.4,1.8c-0.2,0.6-0.6,1.1-1,1.5c-0.4,0.4-1,0.8-1.6,1.1
			C277,129.1,276.4,129.2,275.6,129.2z M275.6,127.4c0.6,0,1.1-0.1,1.5-0.4c0.4-0.2,0.8-0.6,1-1c0.2-0.5,0.4-1,0.4-1.6
			c0-0.6-0.1-1.1-0.4-1.6s-0.6-0.8-1-1c-0.4-0.2-0.9-0.4-1.5-0.4c-0.6,0-1.1,0.1-1.5,0.4c-0.4,0.2-0.8,0.6-1,1s-0.4,1-0.4,1.6
			c0,0.6,0.1,1.1,0.4,1.6c0.2,0.5,0.6,0.8,1,1C274.6,127.3,275.1,127.4,275.6,127.4z"></path>
		<path fill="#94C123" d="M282.1,128.9v-13.2h2v13.2H282.1z"></path>
		<path fill="#94C123" d="M290.5,129.2c-0.9,0-1.8-0.2-2.5-0.7c-0.7-0.4-1.3-1-1.7-1.7c-0.4-0.7-0.6-1.5-0.6-2.4
			c0-0.6,0.1-1.3,0.4-1.8c0.2-0.6,0.6-1.1,1-1.5c0.4-0.4,1-0.8,1.6-1.1c0.6-0.3,1.3-0.4,2-0.4c0.9,0,1.8,0.2,2.5,0.7
			c0.7,0.4,1.3,1,1.7,1.7c0.4,0.7,0.6,1.5,0.6,2.4c0,0.6-0.1,1.2-0.4,1.8c-0.2,0.6-0.6,1.1-1,1.5c-0.4,0.4-1,0.8-1.6,1.1
			C291.9,129.1,291.2,129.2,290.5,129.2z M290.5,127.4c0.6,0,1.1-0.1,1.5-0.4c0.4-0.2,0.8-0.6,1-1c0.2-0.5,0.4-1,0.4-1.6
			c0-0.6-0.1-1.1-0.4-1.6s-0.6-0.8-1-1s-0.9-0.4-1.5-0.4s-1.1,0.1-1.5,0.4s-0.8,0.6-1,1s-0.4,1-0.4,1.6c0,0.6,0.1,1.1,0.4,1.6
			c0.2,0.5,0.6,0.8,1,1C289.4,127.3,289.9,127.4,290.5,127.4z"></path>
		<path fill="#94C123" d="M300.9,133c-0.6,0-1.2-0.1-1.8-0.2c-0.6-0.1-1.1-0.3-1.7-0.6l0.5-1.7c0.5,0.2,0.9,0.4,1.4,0.5
			c0.5,0.1,1,0.2,1.4,0.2c1,0,1.8-0.2,2.4-0.7c0.5-0.5,0.8-1.2,0.8-2v-2l0.3,0.4c-0.3,0.6-0.7,1.1-1.3,1.4c-0.6,0.4-1.3,0.6-2.2,0.6
			c-0.9,0-1.7-0.2-2.4-0.6c-0.7-0.4-1.2-1-1.6-1.7c-0.4-0.7-0.6-1.5-0.6-2.4c0-0.7,0.1-1.3,0.3-1.9c0.2-0.6,0.5-1.1,0.9-1.5
			c0.4-0.4,0.9-0.8,1.4-1s1.2-0.4,1.9-0.4c0.9,0,1.6,0.2,2.2,0.6c0.6,0.4,1,0.9,1.3,1.4L304,122v-2.2h1.9v8.2c0,1.6-0.4,2.8-1.3,3.7
			C303.8,132.6,302.6,133,300.9,133z M301.1,127.3c0.6,0,1-0.1,1.5-0.4c0.4-0.2,0.8-0.6,1-1c0.2-0.4,0.4-1,0.4-1.6
			c0-0.6-0.1-1.1-0.4-1.6c-0.2-0.4-0.6-0.8-1-1c-0.4-0.2-0.9-0.4-1.5-0.4c-0.6,0-1.1,0.1-1.5,0.4c-0.4,0.2-0.8,0.6-1,1
			c-0.2,0.4-0.4,1-0.4,1.6c0,0.6,0.1,1.1,0.4,1.6c0.2,0.4,0.6,0.8,1,1C300,127.1,300.5,127.3,301.1,127.3z"></path>
		<path fill="#94C123" d="M309,133c-0.3,0-0.7,0-1-0.1c-0.3-0.1-0.6-0.2-0.9-0.4l0.5-1.7c0.2,0.1,0.4,0.2,0.6,0.3
			c0.2,0.1,0.4,0.1,0.6,0.1c0.4,0,0.8-0.1,1-0.3c0.2-0.2,0.4-0.5,0.6-0.9l0.3-0.9l-3.6-9.2h2.2l2.5,7l2.4-7h2.1l-3.9,10.4
			c-0.3,0.7-0.6,1.3-0.9,1.7c-0.3,0.4-0.7,0.7-1.2,0.8C309.9,132.9,309.5,133,309,133z"></path>
	</g>
	<g>
		<path fill="#94C123" d="M75.2,1.1C36.6,1.1,5.3,33,5.3,72.2s31.3,71.1,69.9,71.1s69.9-31.8,69.9-71.1S113.8,1.1,75.2,1.1z"></path>
		<path fill="#FFFFFF" d="M90.7,33.4H112v24.5H66.7C66.7,44.4,77.4,33.4,90.7,33.4z"></path>
		<path fill="#FFFFFF" d="M62.5,33.4v49c-13.3,0-24.1-11-24.1-24.5C38.4,44.4,49.2,33.4,62.5,33.4z"></path>
		<path fill="#FFFFFF" d="M59.8,111H38.4V86.5h45.4C83.8,100.1,73.1,111,59.8,111z"></path>
		<path fill="#FFFFFF" d="M88,111v-49c13.3,0,24.1,11,24.1,24.5S101.3,111,88,111z"></path>
	</g>
	<g>
		<path fill="#6A6A6A" d="M194.6,103.2c-5.1,0-10-0.7-14.9-2.2c-4.8-1.4-8.9-3.5-12.2-6.3l5.8-9c1.7,1.5,3.8,2.8,6.1,3.9
			c2.3,1.1,4.8,1.9,7.4,2.5c2.6,0.6,5.2,0.9,7.9,0.9c4.8,0,8.7-0.9,11.6-2.7c3-1.8,4.4-4.5,4.4-8c0-2.6-1-4.8-3-6.7
			c-2-1.8-5.7-3.5-11.1-5l-7.5-2.2c-6.9-2-12-4.6-15.1-7.9c-3.2-3.3-4.7-7.4-4.7-12.3c0-3.2,0.7-6.2,2-8.8c1.3-2.6,3.2-4.9,5.6-6.8
			c2.4-1.9,5.2-3.4,8.5-4.4c3.2-1,6.8-1.5,10.7-1.5c4.9,0,9.5,0.7,13.7,2.1c4.2,1.4,7.7,3.4,10.5,5.8l-6,8.7
			c-1.5-1.4-3.3-2.5-5.3-3.5c-2-1-4.2-1.7-6.5-2.3c-2.3-0.5-4.6-0.8-7-0.8c-2.9,0-5.5,0.4-7.8,1.3c-2.3,0.9-4,2.1-5.3,3.7
			c-1.3,1.6-1.9,3.6-1.9,5.9c0,1.7,0.4,3.1,1.3,4.4c0.8,1.3,2.3,2.4,4.3,3.4c2,1,4.9,2.1,8.5,3.1l8,2.4c6.8,2,11.7,4.6,14.9,7.8
			c3.1,3.2,4.7,7.3,4.7,12.4c0,4.4-1.1,8.2-3.2,11.5c-2.1,3.3-5.3,5.9-9.4,7.7C205.3,102.3,200.4,103.2,194.6,103.2z"></path>
		<path fill="#6A6A6A" d="M255.7,103.2c-5.4,0-10.2-1.2-14.5-3.7c-4.2-2.5-7.6-5.8-10-10c-2.4-4.2-3.6-8.8-3.6-13.8
			c0-3.7,0.7-7.2,2.1-10.5c1.4-3.3,3.3-6.2,5.9-8.8c2.5-2.5,5.5-4.6,8.9-6c3.4-1.5,7.2-2.2,11.3-2.2c5.4,0,10.2,1.2,14.5,3.7
			c4.2,2.5,7.6,5.8,10,10c2.4,4.2,3.6,8.8,3.6,13.8c0,3.7-0.7,7.2-2.1,10.5c-1.4,3.3-3.3,6.3-5.8,8.8c-2.5,2.5-5.5,4.6-8.9,6
			C263.6,102.5,259.8,103.2,255.7,103.2z M255.7,93c3.2,0,6.1-0.7,8.6-2.1c2.5-1.4,4.5-3.4,5.9-6c1.4-2.6,2.1-5.6,2.1-9.2
			c0-3.5-0.7-6.6-2.1-9.2c-1.4-2.6-3.4-4.6-5.9-6c-2.5-1.4-5.4-2.1-8.6-2.1c-3.2,0-6.1,0.7-8.6,2.1c-2.5,1.4-4.5,3.4-5.9,6
			c-1.4,2.6-2.1,5.7-2.1,9.2c0,3.5,0.7,6.6,2.1,9.2c1.4,2.6,3.4,4.6,5.9,6C249.7,92.3,252.5,93,255.7,93z"></path>
		<path fill="#6A6A6A" d="M286.6,59.3v-9.5h11.9v9.5H286.6z M297.1,101.6V41.3c0-5.2,1.5-9.2,4.5-12.2c3-3,7.1-4.5,12.4-4.5
			c1.9,0,3.7,0.2,5.3,0.6c1.6,0.4,3.1,1,4.4,1.7l-2.1,9.1c-1-0.6-2-0.9-2.9-1.2c-0.9-0.2-1.9-0.3-2.8-0.3c-2.1,0-3.9,0.5-5.2,1.6
			c-1.3,1.1-2,2.9-2,5.6v8h13.6v9.5h-13.6v42.3H297.1z"></path>
		<path fill="#6A6A6A" d="M334.1,125.1c-1.9,0-3.7-0.2-5.6-0.6c-1.8-0.4-3.6-1.1-5.3-2.1l2.6-9.8c1.1,0.7,2.3,1.2,3.6,1.6
			c1.3,0.3,2.4,0.5,3.5,0.5c2.4,0,4.4-0.6,5.8-1.7c1.4-1.2,2.5-2.9,3.3-5.3l1.7-5l-20.4-52.7h12.6L350.2,90l14-40.2h12.2L354,109.1
			c-1.6,4.2-3.4,7.4-5.4,9.7c-2,2.3-4.2,3.9-6.6,4.9C339.6,124.6,337,125.1,334.1,125.1z"></path>
		<path fill="#6A6A6A" d="M382.5,101.6V49.7H394v6.6c2.2-2.9,4.7-5,7.5-6.3c2.9-1.3,5.8-1.9,8.9-1.9c4.7,0,8.7,0.9,11.8,2.8
			c3.1,1.9,5.4,4.3,6.9,7.3c1.5,3,2.3,6,2.3,9.2v34.2H420V71c0-3.7-1.1-6.7-3.3-8.9c-2.2-2.2-5.3-3.4-9.2-3.4
			c-2.6,0-4.9,0.6-6.9,1.7c-2,1.2-3.6,2.8-4.7,4.8c-1.2,2-1.7,4.4-1.7,7.2v29.2H382.5z"></path>
		<path fill="#6A6A6A" d="M467.7,103.2c-5.6,0-10.5-1.1-14.7-3.4c-4.2-2.3-7.5-5.5-9.9-9.6c-2.4-4.1-3.5-8.9-3.5-14.4
			c0-4,0.7-7.7,2-11c1.4-3.4,3.3-6.3,5.8-8.8c2.5-2.5,5.4-4.4,8.7-5.8c3.3-1.4,7-2,10.9-2c4.3,0,8.1,0.8,11.5,2.3
			c3.4,1.5,6.1,3.6,8.4,6.4c2.2,2.7,3.8,5.9,4.7,9.6c0.9,3.7,1.1,7.6,0.4,11.9h-41.4c-0.1,3.1,0.6,5.8,2,8.1
			c1.4,2.3,3.5,4.1,6.2,5.4c2.7,1.3,5.8,1.9,9.5,1.9c2.9,0,5.8-0.4,8.5-1.3c2.7-0.9,5.2-2.2,7.5-4l4.5,8.3c-1.7,1.4-3.7,2.5-6.1,3.5
			c-2.4,1-4.9,1.7-7.4,2.2C472.6,102.9,470.2,103.2,467.7,103.2z M451.3,69.8h29.4c-0.1-3.9-1.4-7-3.7-9.2
			c-2.4-2.2-5.8-3.4-10.2-3.4c-4.3,0-7.8,1.1-10.6,3.4C453.4,62.8,451.8,65.8,451.3,69.8z"></path>
	</g>
</g>
</svg>